<mxfile host="app.diagrams.net" modified="2022-02-08T08:32:47.520Z" agent="5.0 (Macintosh; Intel Mac OS X 10_15_7) AppleWebKit/537.36 (KHTML, like Gecko) Chrome/97.0.4692.99 Safari/537.36" etag="oo7OEjVeWAn9EEEvKKjm" version="15.7.0" type="github">
  <diagram id="eE9pi7qKP8y55_C2TWou" name="Page-1">
    <mxGraphModel dx="1298" dy="724" grid="1" gridSize="10" guides="1" tooltips="1" connect="1" arrows="1" fold="1" page="1" pageScale="1" pageWidth="827" pageHeight="1169" math="0" shadow="0">
      <root>
        <mxCell id="0" />
        <mxCell id="1" parent="0" />
        <mxCell id="9RmS_QwfE0ZSOby0ldMM-1" value="" style="group" vertex="1" connectable="0" parent="1">
          <mxGeometry x="110" y="120" width="630" height="120" as="geometry" />
        </mxCell>
        <mxCell id="sIGUzsI1yXcAvuu4i7Vx-1" value="" style="rounded=1;whiteSpace=wrap;html=1;fillColor=#ffe6cc;strokeColor=#d79b00;" parent="9RmS_QwfE0ZSOby0ldMM-1" vertex="1">
          <mxGeometry width="630" height="120" as="geometry" />
        </mxCell>
        <mxCell id="sIGUzsI1yXcAvuu4i7Vx-2" value="&lt;font style=&quot;font-size: 21px&quot;&gt;国际化业务&lt;/font&gt;" style="text;html=1;strokeColor=none;fillColor=none;align=center;verticalAlign=middle;whiteSpace=wrap;rounded=0;" parent="9RmS_QwfE0ZSOby0ldMM-1" vertex="1">
          <mxGeometry x="248" y="18" width="134" height="30" as="geometry" />
        </mxCell>
        <mxCell id="sIGUzsI1yXcAvuu4i7Vx-3" value="&lt;div class=&quot;lake-content&quot;&gt;&lt;span&gt;AliExpress&lt;/span&gt;&lt;br&gt;&lt;/div&gt;" style="rounded=1;whiteSpace=wrap;html=1;fillColor=#fff2cc;strokeColor=#d6b656;align=center;" parent="9RmS_QwfE0ZSOby0ldMM-1" vertex="1">
          <mxGeometry x="30" y="70" width="100" height="30" as="geometry" />
        </mxCell>
        <mxCell id="sIGUzsI1yXcAvuu4i7Vx-4" value="&lt;div class=&quot;lake-content&quot;&gt;&lt;div class=&quot;lake-content&quot;&gt;&lt;span&gt;Lazada&lt;/span&gt;&lt;br&gt;&lt;/div&gt;&lt;/div&gt;" style="rounded=1;whiteSpace=wrap;html=1;fillColor=#fff2cc;strokeColor=#d6b656;align=center;" parent="9RmS_QwfE0ZSOby0ldMM-1" vertex="1">
          <mxGeometry x="150" y="70" width="100" height="30" as="geometry" />
        </mxCell>
        <mxCell id="sIGUzsI1yXcAvuu4i7Vx-5" value="&lt;div class=&quot;lake-content&quot;&gt;&lt;div class=&quot;lake-content&quot;&gt;&lt;span&gt;Daraz&lt;/span&gt;&lt;br&gt;&lt;/div&gt;&lt;/div&gt;" style="rounded=1;whiteSpace=wrap;html=1;fillColor=#fff2cc;strokeColor=#d6b656;align=center;" parent="9RmS_QwfE0ZSOby0ldMM-1" vertex="1">
          <mxGeometry x="270" y="70" width="100" height="30" as="geometry" />
        </mxCell>
        <mxCell id="sIGUzsI1yXcAvuu4i7Vx-6" value="&lt;div class=&quot;lake-content&quot;&gt;&lt;div class=&quot;lake-content&quot;&gt;天猫海外&lt;/div&gt;&lt;/div&gt;" style="rounded=1;whiteSpace=wrap;html=1;fillColor=#fff2cc;strokeColor=#d6b656;align=center;" parent="9RmS_QwfE0ZSOby0ldMM-1" vertex="1">
          <mxGeometry x="390" y="70" width="100" height="30" as="geometry" />
        </mxCell>
        <mxCell id="sIGUzsI1yXcAvuu4i7Vx-7" value="&lt;div class=&quot;lake-content&quot;&gt;&lt;div class=&quot;lake-content&quot;&gt;DTC&lt;/div&gt;&lt;/div&gt;" style="rounded=1;whiteSpace=wrap;html=1;fillColor=#fff2cc;strokeColor=#d6b656;align=center;" parent="9RmS_QwfE0ZSOby0ldMM-1" vertex="1">
          <mxGeometry x="510" y="70" width="100" height="30" as="geometry" />
        </mxCell>
        <mxCell id="9RmS_QwfE0ZSOby0ldMM-3" value="" style="group" vertex="1" connectable="0" parent="1">
          <mxGeometry x="110" y="260" width="630" height="120" as="geometry" />
        </mxCell>
        <mxCell id="9RmS_QwfE0ZSOby0ldMM-4" value="" style="rounded=1;whiteSpace=wrap;html=1;fillColor=#dae8fc;strokeColor=#6c8ebf;" vertex="1" parent="9RmS_QwfE0ZSOby0ldMM-3">
          <mxGeometry width="630" height="120" as="geometry" />
        </mxCell>
        <mxCell id="9RmS_QwfE0ZSOby0ldMM-5" value="&lt;font style=&quot;font-size: 21px&quot;&gt;国际化中台&lt;/font&gt;" style="text;html=1;strokeColor=none;fillColor=none;align=center;verticalAlign=middle;whiteSpace=wrap;rounded=0;" vertex="1" parent="9RmS_QwfE0ZSOby0ldMM-3">
          <mxGeometry x="248" y="18" width="134" height="30" as="geometry" />
        </mxCell>
        <mxCell id="9RmS_QwfE0ZSOby0ldMM-6" value="&lt;div class=&quot;lake-content&quot;&gt;&lt;span&gt;商家&lt;/span&gt;&lt;br&gt;&lt;/div&gt;" style="rounded=1;whiteSpace=wrap;html=1;fillColor=#d5e8d4;strokeColor=#82b366;align=center;" vertex="1" parent="9RmS_QwfE0ZSOby0ldMM-3">
          <mxGeometry x="16" y="70" width="80" height="30" as="geometry" />
        </mxCell>
        <mxCell id="9RmS_QwfE0ZSOby0ldMM-7" value="&lt;div class=&quot;lake-content&quot;&gt;&lt;div class=&quot;lake-content&quot;&gt;&lt;span&gt;商品&lt;/span&gt;&lt;br&gt;&lt;/div&gt;&lt;/div&gt;" style="rounded=1;whiteSpace=wrap;html=1;fillColor=#d5e8d4;strokeColor=#82b366;align=center;" vertex="1" parent="9RmS_QwfE0ZSOby0ldMM-3">
          <mxGeometry x="104" y="70" width="80" height="30" as="geometry" />
        </mxCell>
        <mxCell id="9RmS_QwfE0ZSOby0ldMM-8" value="&lt;div class=&quot;lake-content&quot;&gt;&lt;div class=&quot;lake-content&quot;&gt;&lt;span&gt;营销&lt;/span&gt;&lt;br&gt;&lt;/div&gt;&lt;/div&gt;" style="rounded=1;whiteSpace=wrap;html=1;align=center;" vertex="1" parent="9RmS_QwfE0ZSOby0ldMM-3">
          <mxGeometry x="190" y="70" width="80" height="30" as="geometry" />
        </mxCell>
        <mxCell id="9RmS_QwfE0ZSOby0ldMM-9" value="&lt;div class=&quot;lake-content&quot;&gt;&lt;div class=&quot;lake-content&quot;&gt;交易&lt;/div&gt;&lt;/div&gt;" style="rounded=1;whiteSpace=wrap;html=1;fillColor=#d5e8d4;strokeColor=#82b366;align=center;" vertex="1" parent="9RmS_QwfE0ZSOby0ldMM-3">
          <mxGeometry x="275" y="70" width="80" height="30" as="geometry" />
        </mxCell>
        <mxCell id="9RmS_QwfE0ZSOby0ldMM-10" value="&lt;div class=&quot;lake-content&quot;&gt;&lt;div class=&quot;lake-content&quot;&gt;资金&lt;/div&gt;&lt;/div&gt;" style="rounded=1;whiteSpace=wrap;html=1;fillColor=#d5e8d4;strokeColor=#82b366;align=center;" vertex="1" parent="9RmS_QwfE0ZSOby0ldMM-3">
          <mxGeometry x="360" y="70" width="80" height="30" as="geometry" />
        </mxCell>
        <mxCell id="9RmS_QwfE0ZSOby0ldMM-11" value="&lt;div class=&quot;lake-content&quot;&gt;&lt;div class=&quot;lake-content&quot;&gt;基础架构&lt;/div&gt;&lt;/div&gt;" style="rounded=1;whiteSpace=wrap;html=1;fillColor=#d5e8d4;strokeColor=#82b366;align=center;" vertex="1" parent="9RmS_QwfE0ZSOby0ldMM-3">
          <mxGeometry x="450" y="70" width="80" height="30" as="geometry" />
        </mxCell>
        <mxCell id="9RmS_QwfE0ZSOby0ldMM-12" value="&lt;div class=&quot;lake-content&quot;&gt;&lt;div class=&quot;lake-content&quot;&gt;创新业务&lt;/div&gt;&lt;/div&gt;" style="rounded=1;whiteSpace=wrap;html=1;fillColor=#d5e8d4;strokeColor=#82b366;align=center;" vertex="1" parent="9RmS_QwfE0ZSOby0ldMM-3">
          <mxGeometry x="540" y="70" width="80" height="30" as="geometry" />
        </mxCell>
        <mxCell id="9RmS_QwfE0ZSOby0ldMM-13" value="" style="whiteSpace=wrap;html=1;rounded=1;fillColor=#f8cecc;strokeColor=#b85450;" vertex="1" parent="1">
          <mxGeometry x="110" y="410" width="375" height="130" as="geometry" />
        </mxCell>
        <mxCell id="9RmS_QwfE0ZSOby0ldMM-14" value="" style="edgeStyle=orthogonalEdgeStyle;rounded=0;orthogonalLoop=1;jettySize=auto;html=1;" edge="1" parent="1" source="9RmS_QwfE0ZSOby0ldMM-8" target="9RmS_QwfE0ZSOby0ldMM-13">
          <mxGeometry relative="1" as="geometry" />
        </mxCell>
        <mxCell id="9RmS_QwfE0ZSOby0ldMM-15" value="营销" style="text;html=1;strokeColor=none;fillColor=none;align=center;verticalAlign=middle;whiteSpace=wrap;rounded=0;" vertex="1" parent="1">
          <mxGeometry x="267.5" y="420" width="60" height="30" as="geometry" />
        </mxCell>
        <mxCell id="9RmS_QwfE0ZSOby0ldMM-16" value="招" style="text;html=1;strokeColor=none;fillColor=none;align=center;verticalAlign=middle;whiteSpace=wrap;rounded=0;" vertex="1" parent="1">
          <mxGeometry x="126" y="470" width="60" height="30" as="geometry" />
        </mxCell>
        <mxCell id="9RmS_QwfE0ZSOby0ldMM-17" value="选" style="text;html=1;strokeColor=none;fillColor=none;align=center;verticalAlign=middle;whiteSpace=wrap;rounded=0;" vertex="1" parent="1">
          <mxGeometry x="220" y="470" width="60" height="30" as="geometry" />
        </mxCell>
        <mxCell id="9RmS_QwfE0ZSOby0ldMM-18" value="搭" style="text;html=1;strokeColor=none;fillColor=none;align=center;verticalAlign=middle;whiteSpace=wrap;rounded=0;" vertex="1" parent="1">
          <mxGeometry x="310" y="470" width="60" height="30" as="geometry" />
        </mxCell>
        <mxCell id="9RmS_QwfE0ZSOby0ldMM-19" value="投" style="text;html=1;strokeColor=none;fillColor=none;align=center;verticalAlign=middle;whiteSpace=wrap;rounded=0;" vertex="1" parent="1">
          <mxGeometry x="410" y="470" width="60" height="30" as="geometry" />
        </mxCell>
        <mxCell id="9RmS_QwfE0ZSOby0ldMM-20" value="" style="html=1;shadow=0;dashed=0;align=center;verticalAlign=middle;shape=mxgraph.arrows2.arrow;dy=0.55;dx=21;notch=15;fillColor=#b1ddf0;strokeColor=#10739e;" vertex="1" parent="1">
          <mxGeometry x="170" y="465" width="60" height="40" as="geometry" />
        </mxCell>
        <mxCell id="9RmS_QwfE0ZSOby0ldMM-21" value="" style="html=1;shadow=0;dashed=0;align=center;verticalAlign=middle;shape=mxgraph.arrows2.arrow;dy=0.55;dx=21;notch=15;fillColor=#b1ddf0;strokeColor=#10739e;" vertex="1" parent="1">
          <mxGeometry x="267.5" y="465" width="60" height="40" as="geometry" />
        </mxCell>
        <mxCell id="9RmS_QwfE0ZSOby0ldMM-22" value="" style="html=1;shadow=0;dashed=0;align=center;verticalAlign=middle;shape=mxgraph.arrows2.arrow;dy=0.55;dx=21;notch=17;fillColor=#b1ddf0;strokeColor=#10739e;" vertex="1" parent="1">
          <mxGeometry x="360" y="465" width="60" height="40" as="geometry" />
        </mxCell>
      </root>
    </mxGraphModel>
  </diagram>
</mxfile>
